<svg width="100" height="100" viewBox="0 0 100 100" fill="none" xmlns="http://www.w3.org/2000/svg">
<path d="M83.09 35.4709C81.1137 35.4709 79.5062 33.8848 79.4668 31.9193V26.9284C79.4668 25.6431 78.4249 24.5977 77.1361 24.5977H68.5936C66.5922 24.5977 64.9668 22.9758 64.9668 20.9709V12.4284C64.9668 11.1431 63.9249 10.0977 62.6361 10.0977H38.2975C37.0122 10.0977 35.9668 11.1395 35.9668 12.4284V20.9709C35.9668 22.9722 34.3449 24.5977 32.34 24.5977H23.7975C22.5122 24.5977 21.4668 25.6395 21.4668 26.9284V31.9228C21.4668 31.8978 21.4668 31.8727 21.4668 31.8477C21.4668 33.849 19.8449 35.4744 17.8436 35.4744H9.29754C8.01223 35.4744 6.9668 36.5163 6.9668 37.8052V62.1437C6.9668 63.429 8.00865 64.4744 9.29754 64.4744H17.8436C19.8449 64.4744 21.4668 66.0963 21.4668 68.0977C21.4668 68.0189 21.4668 67.9437 21.474 67.8649V73.0133C21.474 74.2986 22.5158 75.3441 23.8047 75.3441H32.3472C34.3485 75.3441 35.974 76.9659 35.974 78.9709V87.5133C35.974 88.7986 37.0158 89.8441 38.3047 89.8441H62.6432C63.9285 89.8441 64.974 88.8022 64.974 87.5133V78.9709C64.974 76.9695 66.5958 75.3441 68.6007 75.3441H77.1432C78.4285 75.3441 79.474 74.3022 79.474 73.0133V67.8649C79.5921 65.971 81.1674 64.4709 83.09 64.4709H91.6361C92.9214 64.4709 93.9668 63.429 93.9668 62.1401V37.8016C93.9668 36.5163 92.9249 35.4709 91.6361 35.4709H83.09ZM64.974 64.4673V71.7173C64.974 73.7186 63.3521 75.3405 61.3472 75.3405H39.5972C37.5958 75.3405 35.974 73.7186 35.974 71.7173V64.4673H25.0578C23.0707 64.4494 21.4668 62.8347 21.4668 60.8441V39.0941C21.4668 37.0927 23.0886 35.4709 25.0936 35.4709C25.0793 35.4709 25.0685 35.4709 25.0542 35.4709H35.9668V28.2209C35.9668 26.2195 37.5886 24.5977 39.5936 24.5977H61.3436C63.3449 24.5977 64.9668 26.2195 64.9668 28.2209V35.4709H75.84C77.8414 35.4709 79.4668 37.0927 79.4668 39.0977V60.8477C79.4668 62.849 77.8449 64.4709 75.84 64.4709H64.974V64.4673Z" fill="black"/>
<path d="M65.1292 50.7698C55.6881 52.6566 53.1568 55.1878 51.2701 64.6289H49.6697C47.7829 55.1878 45.2517 52.6566 35.8105 50.7698V49.1694C45.2517 47.2826 47.7829 44.7514 49.6697 35.3103H51.2701C53.1568 44.7514 55.6881 47.2826 65.1292 49.1694V50.7698Z" fill="black"/>
</svg>
