<?xml version="1.0" encoding="UTF-8"?>
<svg xmlns="http://www.w3.org/2000/svg" width="16" height="16"
  viewBox="0 -9.91 297.38 297.38" fill="none" aria-hidden="true">
  <path fill="#ee4691" d="M239.81,98.28c-5.52,0-10.01-4.43-10.12-9.92v-13.94c0-3.59-2.91-6.51-6.51-6.51h-23.86c-5.59,0-10.13-4.53-10.13-10.13v-23.86c0-3.59-2.91-6.51-6.51-6.51h-67.98c-3.59,0-6.51,2.91-6.51,6.51v23.86c0,5.59-4.53,10.13-10.13,10.13h-23.86c-3.59,0-6.51,2.91-6.51,6.51v13.95-.21c0,5.59-4.53,10.13-10.12,10.13h-23.87c-3.59,0-6.51,2.91-6.51,6.51v67.98c0,3.59,2.91,6.51,6.51,6.51h23.87c5.59,0,10.12,4.53,10.12,10.12,0-.22,0-.43.02-.65v14.38c0,3.59,2.91,6.51,6.51,6.51h23.86c5.59,0,10.13,4.53,10.13,10.13v23.86c0,3.59,2.91,6.51,6.51,6.51h67.98c3.59,0,6.51-2.91,6.51-6.51v-23.86c0-5.59,4.53-10.13,10.13-10.13h23.86c3.59,0,6.51-2.91,6.51-6.51v-14.38c.33-5.29,4.73-9.48,10.1-9.48h23.87c3.59,0,6.51-2.91,6.51-6.51v-67.98c0-3.59-2.91-6.51-6.51-6.51h-23.87ZM189.21,179.27v20.25c0,5.59-4.53,10.12-10.13,10.12h-60.75c-5.59,0-10.12-4.53-10.12-10.12v-20.25h-30.49c-5.55-.05-10.03-4.56-10.03-10.12v-60.75c0-5.59,4.53-10.12,10.13-10.12h-.11,30.48v-20.25c0-5.59,4.53-10.12,10.13-10.12h60.75c5.59,0,10.12,4.53,10.12,10.12v20.25h30.37c5.59,0,10.13,4.53,10.13,10.13v60.75c0,5.59-4.53,10.12-10.13,10.12h-30.35,0Z"/>
  <path fill="#ee4691" d="M189.64,141.02c-26.37,5.27-33.44,12.34-38.71,38.71h-4.47c-5.27-26.37-12.34-33.44-38.71-38.71v-4.47c26.37-5.27,33.44-12.34,38.71-38.71h4.47c5.27,26.37,12.34,33.44,38.71,38.71v4.47h0Z"/>
</svg>
